<svg width="32" height="32" viewBox="0 0 32 32" fill="none" xmlns="http://www.w3.org/2000/svg">
<path d="M0 10.7333C0 6.93673 0 5.03843 0.750577 3.5935C1.38308 2.37588 2.37588 1.38308 3.5935 0.750577C5.03843 0 6.93673 0 10.7333 0H21.2667C25.0633 0 26.9616 0 28.4065 0.750577C29.6241 1.38308 30.6169 2.37588 31.2494 3.5935C32 5.03843 32 6.93673 32 10.7333V21.2667C32 25.0633 32 26.9616 31.2494 28.4065C30.6169 29.6241 29.6241 30.6169 28.4065 31.2494C26.9616 32 25.0633 32 21.2667 32H10.7333C6.93673 32 5.03843 32 3.5935 31.2494C2.37588 30.6169 1.38308 29.6241 0.750577 28.4065C0 26.9616 0 25.0633 0 21.2667V10.7333Z" fill="url(#paint0_linear_159_864)"/>
<path d="M22.2224 20.4446L22.9335 16.0002H18.6668V12.8891C18.6668 11.6446 19.1113 10.6669 21.0668 10.6669H23.1113V6.57797C21.9557 6.40019 20.7113 6.22241 19.5557 6.22241C15.9113 6.22241 13.3335 8.44463 13.3335 12.4446V16.0002H9.3335V20.4446H13.3335V32.0002C15.1113 32.0002 16.8891 32.0002 18.6668 32.0002V20.4446H22.2224Z" fill="white"/>
<defs>
<linearGradient id="paint0_linear_159_864" x1="16" y1="31.065" x2="16" y2="0" gradientUnits="userSpaceOnUse">
<stop stop-color="#0062E0"/>
<stop offset="1" stop-color="#19AFFF"/>
</linearGradient>
</defs>
</svg>
