<svg width="32" height="32" viewBox="0 0 32 32" fill="none" xmlns="http://www.w3.org/2000/svg">
<g clip-path="url(#clip0_159_859)">
<path d="M0 10.7343C0 6.93771 0 5.0394 0.750577 3.59448C1.38308 2.37686 2.37588 1.38406 3.5935 0.751554C5.03843 0.000976562 6.93673 0.000976562 10.7333 0.000976562H21.2667C25.0633 0.000976562 26.9616 0.000976562 28.4065 0.751554C29.6241 1.38406 30.6169 2.37686 31.2494 3.59448C32 5.0394 32 6.93771 32 10.7343V21.2676C32 25.0642 32 26.9626 31.2494 28.4075C30.6169 29.6251 29.6241 30.6179 28.4065 31.2504C26.9616 32.001 25.0633 32.001 21.2667 32.001H10.7333C6.93673 32.001 5.03843 32.001 3.5935 31.2504C2.37588 30.6179 1.38308 29.6251 0.750577 28.4075C0 26.9626 0 25.0642 0 21.2676V10.7343Z" fill="url(#paint0_linear_159_859)"/>
<path d="M12.3332 24.5008C11.6852 24.5008 11.7953 24.2562 11.5719 23.6392L9.6665 17.3685L24.3332 8.66748" fill="#C8DAEA"/>
<path d="M12.3335 24.5009C12.8335 24.5009 13.0544 24.2723 13.3335 24.0009L16.0002 21.4079L12.6738 19.4021" fill="#A9C9DD"/>
<path d="M12.6735 19.4025L20.7335 25.3574C21.6533 25.8649 22.3171 25.6021 22.5462 24.5035L25.827 9.04297C26.1629 7.69627 25.3137 7.08547 24.4338 7.48493L5.16879 14.9134C3.85378 15.4409 3.86144 16.1745 4.92909 16.5014L9.87293 18.0445L21.3184 10.8236C21.8587 10.496 22.3546 10.6722 21.9476 11.0334" fill="url(#paint1_linear_159_859)"/>
</g>
<defs>
<linearGradient id="paint0_linear_159_859" x1="21.3344" y1="5.33538" x2="13.3344" y2="24.001" gradientUnits="userSpaceOnUse">
<stop stop-color="#37AEE2"/>
<stop offset="1" stop-color="#1E96C8"/>
</linearGradient>
<linearGradient id="paint1_linear_159_859" x1="18.501" y1="15.334" x2="21.6308" y2="22.4562" gradientUnits="userSpaceOnUse">
<stop stop-color="#EFF7FC"/>
<stop offset="1" stop-color="white"/>
</linearGradient>
<clipPath id="clip0_159_859">
<rect width="32" height="32" fill="white" transform="translate(0 0.000976562)"/>
</clipPath>
</defs>
</svg>
